<?xml version="1.0" standalone="no"?>
<!DOCTYPE svg PUBLIC "-//W3C//DTD SVG 1.0//EN" "http://www.w3.org/TR/2001/REC-SVG-20010904/DTD/svg10.dtd">
<svg xmlns="http://www.w3.org/2000/svg" xmlns:xlink="http://www.w3.org/1999/xlink" id="body_1" width="149" height="149">

<g transform="matrix(0.26607144 0 0 0.26607144 -0 0.26607144)">
	<g transform="matrix(0.1 0 -0 -0.1 0 559)">
        <path d="M4881 5499C 4750 5473 4597 5403 4487 5318C 4447 5287 4207 5036 3909 4715C 3629 4413 3391 4164 3381 4162C 3372 4160 2700 4227 1889 4309C 1078 4391 392 4460 364 4462L364 4462L313 4465L167 4285L21 4105L48 4094C 63 4087 626 3888 1300 3651C 1973 3413 2525 3218 2526 3217C 2528 3216 2319 2993 2063 2722L2063 2722L1598 2230L1085 2230L572 2230L443 2095C 373 2020 314 1956 312 1952C 311 1947 590 1865 932 1769L932 1769L1555 1595L1729 972C 1825 630 1907 351 1912 352C 1916 354 1981 413 2055 483L2055 483L2190 611L2190 1124L2190 1637L2682 2103C 2953 2359 3176 2568 3177 2566C 3178 2565 3373 2013 3611 1340C 3848 666 4047 103 4054 88L4054 88L4065 61L4220 186C 4305 255 4387 322 4402 333L4402 333L4429 355L4274 1875C 4189 2711 4121 3405 4122 3417C 4124 3431 4320 3620 4675 3949C 4998 4248 5247 4487 5278 4527C 5495 4808 5532 5188 5360 5383C 5322 5427 5230 5476 5149 5495C 5080 5511 4952 5513 4881 5499z" stroke="none" fill="#000000" fill-rule="nonzero" />
	</g>
</g>
</svg>